<svg width="710" height="150" viewBox="0 0 710 150" fill="none" xmlns="http://www.w3.org/2000/svg">
<path d="M61.1185 140.874C24.1332 140.874 0.137207 114.532 0.137207 74.1178C0.137207 33.7045 24.1332 7.36312 61.1185 7.36312C91.6092 7.36312 113.26 25.4044 119.936 54.2711L86.0159 59.8645C82.5892 45.7925 73.5679 37.3125 61.1185 37.3125C45.9639 37.3125 36.2212 51.7458 36.2212 74.1178C36.2212 96.4898 45.9639 110.924 61.1185 110.924C74.4692 110.924 84.0319 101.723 87.2799 86.5671L120.477 94.6858C113.621 123.192 91.7892 140.874 61.1185 140.874Z" fill="#237C9F"/>
<path d="M189.4 92.1602C189.4 80.0722 184.529 73.0362 176.229 73.0362C167.929 73.0362 163.058 80.0722 163.058 92.1602C163.058 104.248 167.929 111.286 176.229 111.286C184.529 111.286 189.4 104.248 189.4 92.1602ZM129.5 92.1602C129.5 62.5709 147.902 43.4469 176.229 43.4469C204.554 43.4469 222.958 62.5709 222.958 92.1602C222.958 121.748 204.554 140.874 176.229 140.874C147.902 140.874 129.5 121.748 129.5 92.1602Z" fill="#237C9F"/>
<path d="M277.988 73.0358C271.312 73.0358 266.442 80.4332 266.442 90.8972C266.442 102.444 271.494 111.285 277.988 111.285C284.123 111.285 287.731 107.496 298.015 90.8972C288.452 77.1852 283.942 73.0358 277.988 73.0358ZM330.671 137.265H297.112V122.472H293.684C285.746 135.461 278.168 140.873 269.147 140.873C247.678 140.873 233.064 120.667 233.064 90.8972C233.064 61.8492 247.136 43.4465 269.147 43.4465C278.168 43.4465 285.927 48.6785 293.864 60.5865H297.112V10.9705H330.671V137.265Z" fill="#237C9F"/>
<path d="M61.1185 140.874C24.1332 140.874 0.137207 114.532 0.137207 74.1178C0.137207 33.7045 24.1332 7.36312 61.1185 7.36312C91.6092 7.36312 113.26 25.4044 119.936 54.2711L86.0159 59.8645C82.5892 45.7925 73.5679 37.3125 61.1185 37.3125C45.9639 37.3125 36.2212 51.7458 36.2212 74.1178C36.2212 96.4898 45.9639 110.924 61.1185 110.924C74.4692 110.924 84.0319 101.723 87.2799 86.5671L120.477 94.6858C113.621 123.192 91.7892 140.874 61.1185 140.874Z" fill="#237C9F"/>
<path d="M189.4 92.1602C189.4 80.0722 184.529 73.0362 176.229 73.0362C167.929 73.0362 163.058 80.0722 163.058 92.1602C163.058 104.248 167.929 111.286 176.229 111.286C184.529 111.286 189.4 104.248 189.4 92.1602ZM129.5 92.1602C129.5 62.5709 147.902 43.4469 176.229 43.4469C204.554 43.4469 222.958 62.5709 222.958 92.1602C222.958 121.748 204.554 140.874 176.229 140.874C147.902 140.874 129.5 121.748 129.5 92.1602Z" fill="#237C9F"/>
<path d="M277.988 73.0358C271.312 73.0358 266.442 80.4332 266.442 90.8972C266.442 102.444 271.494 111.285 277.988 111.285C284.123 111.285 287.731 107.496 298.015 90.8972C288.452 77.1852 283.942 73.0358 277.988 73.0358ZM330.671 137.265H297.112V122.472H293.684C285.746 135.461 278.168 140.873 269.147 140.873C247.678 140.873 233.064 120.667 233.064 90.8972C233.064 61.8492 247.136 43.4465 269.147 43.4465C278.168 43.4465 285.927 48.6785 293.864 60.5865H297.112V10.9705H330.671V137.265Z" fill="#237C9F"/>
<path d="M689.32 149.238H362.32C351.275 149.238 342.32 140.284 342.32 129.238V20.905C342.32 9.85829 351.275 0.904957 362.32 0.904957H689.32C700.366 0.904957 709.32 9.85829 709.32 20.905V129.238C709.32 140.284 700.366 149.238 689.32 149.238Z" fill="#237C9F"/>
<path d="M415.425 75.9309C413.801 66.5495 408.93 62.5802 402.073 62.5802C395.578 62.5802 390.887 67.6309 388.902 75.9309H415.425ZM402.073 36.7802C430.039 36.7802 448.081 56.4455 448.081 86.3949V91.6269H388.362C389.986 100.83 395.578 106.603 403.337 106.603C410.554 106.603 415.425 102.814 417.409 95.9575L447.721 103.355C441.405 122.842 425.347 134.027 403.337 134.027C374.469 134.027 355.706 115.083 355.706 85.4935C355.706 55.9042 373.929 36.7802 402.073 36.7802Z" fill="#E8F0F2"/>
<path d="M502.569 40.3887V54.4607H505.456C515.018 40.5687 523.678 36.7794 533.962 36.7794C549.117 36.7794 558.86 47.786 558.86 65.286V130.599H525.302V76.4714C525.302 69.9767 523.497 67.4514 519.708 67.4514C514.657 67.4514 509.425 72.142 502.569 84.5914V130.599H469.01V40.3887H502.569Z" fill="#E8F0F2"/>
<path d="M613.711 131.501C590.978 131.501 579.071 119.233 579.071 95.7773V64.7453H568.424V40.3893H579.071V16.9333H612.628V40.3893H633.738V64.7453H612.628V95.7773C612.628 101.551 614.794 104.077 619.484 104.077C622.911 104.077 624.896 103.897 631.211 102.995L635.36 129.336C627.242 130.96 621.288 131.501 613.711 131.501Z" fill="#E8F0F2"/>
<path d="M685.157 130.599H647.991V93.4319H685.157V130.599Z" fill="#E8F0F2"/>
</svg>
